<?xml version="1.0" encoding="UTF-8" standalone="no"?>
<!-- Uploaded to: SVG Repo, www.svgrepo.com, Generator: SVG Repo Mixer Tools -->

<svg
   fill="#000000"
   version="1.1"
   id="Capa_1"
   width="256"
   height="256"
   viewBox="0 0 298.18976 298.18976"
   xml:space="preserve"
   sodipodi:docname="mnhmh2_logo.svg"
   inkscape:version="1.4.2 (ebf0e940d0, 2025-05-08)"
   xmlns:inkscape="http://www.inkscape.org/namespaces/inkscape"
   xmlns:sodipodi="http://sodipodi.sourceforge.net/DTD/sodipodi-0.dtd"
   xmlns="http://www.w3.org/2000/svg"
   xmlns:svg="http://www.w3.org/2000/svg"><defs
   id="defs1"><rect
     x="-71.589487"
     y="17.021277"
     width="382.4781"
     height="207.7597"
     id="rect2" /></defs><sodipodi:namedview
   id="namedview1"
   pagecolor="#ffffff"
   bordercolor="#000000"
   borderopacity="0.25"
   inkscape:showpageshadow="2"
   inkscape:pageopacity="0.0"
   inkscape:pagecheckerboard="0"
   inkscape:deskcolor="#d1d1d1"
   inkscape:zoom="1.9975"
   inkscape:cx="51.814768"
   inkscape:cy="173.46683"
   inkscape:window-width="1920"
   inkscape:window-height="1008"
   inkscape:window-x="0"
   inkscape:window-y="0"
   inkscape:window-maximized="1"
   inkscape:current-layer="Capa_1" />
<g
   id="g1"
   transform="matrix(0.31038746,0,0,0.29282903,4.4786032,12.659725)"
   style="fill:#ffccaa">
	<path
   d="m 926.932,305.137 c 12.301,-38.3 1.4,-86.6 -32,-124 -14.5,-16.2 -31.4,-28.5 -49.199,-36.5 -5.1,-8.4 -11.201,-16.6 -18.1,-24.4 -29.9,-33.5 -69.4,-51.5 -105.701,-51.7 -25.4,-19.5 -59.699,-34.3 -98.699,-40.4 -30.7,-4.8 -60.3,-3.6 -86.2,2.4 -22.5,-9.8 -49,-13.8 -76.8,-10.3 -28.899,3.7 -54.5,14.9 -74.1,31 -31,-14 -70.9,-14.8 -108.9,0.9 -32.7,13.5 -57.8,36.5 -72,63 -25.4,5.6 -51.1,19.1 -73,40.1 -31.1,29.8 -47.5,68 -47.4,102.8 -37.8,21 -61.8,57.1 -60.1,95.6 -10.1,15.4 -17.7,33.5 -21.7,53.4 -6.9,34.5 -1.7,67.899 12.3,94.3 -1,58.3 31.7,108.6 80.9,118.4 3.2,0.6 6.4,1.1 9.6,1.399 -1.7,12.101 -1.5,24.4 1,36.7 14.1,71.1 95.7,114.8 182.3,97.6 3.899,-0.8 7.8,-1.699 11.6,-2.699 v 0 c 12.9,20.699 39.7,11.8 39.7,11.8 v 76.6 c 0,8.2 3.1,16 8.8,22 l 42.4,44.7 c 9.899,10.5 27.5,3.4 27.5,-11 v -86.6 c 2.6,-78.101 31.3,-116.7 55.8,-131.4 33,-19.9 32.5,-61.3 32.3,-76.4 26,13.7 67.101,21.5 101.5,17.601 155.199,-17.9 163.299,-122.3 168.4,-139.4 45.299,3.4 86.898,-15.8 104.898,-52.7 2.5,-5.199 4.5,-10.6 5.9,-16 15,-8.899 27.301,-21.6 35.1,-37.6 10.602,-21.601 11.301,-46.001 3.901,-69.201 z"
   id="path1"
   style="fill:#ffccaa" />
</g>
<text
   xml:space="preserve"
   style="font-size:198.794px;font-family:'TeX Gyre Chorus';-inkscape-font-specification:'TeX Gyre Chorus, Normal';text-align:start;writing-mode:lr-tb;direction:ltr;text-anchor:start;fill:#501616;stroke-width:1.1648"
   x="53.512695"
   y="167.7482"
   id="text1"><tspan
     sodipodi:role="line"
     id="tspan1"
     style="fill:#501616;stroke-width:1.1648"
     x="53.512695"
     y="167.7482"><tspan
       style="font-size:173.944px"
       id="tspan4">M</tspan><tspan
       style="font-size:74.5474px;fill:#501616"
       id="tspan2">2</tspan></tspan></text><text
   xml:space="preserve"
   transform="scale(1.1648037)"
   id="text2"
   style="font-size:64px;font-family:'TeX Gyre Chorus';-inkscape-font-specification:'TeX Gyre Chorus, Normal';text-align:start;writing-mode:lr-tb;direction:ltr;white-space:pre;shape-inside:url(#rect2);display:inline;fill:#501616" /></svg>
