<?xml version="1.0" encoding="UTF-8" standalone="no"?>
<!-- Uploaded to: SVG Repo, www.svgrepo.com, Generator: SVG Repo Mixer Tools -->

<svg
   width="600"
   height="600"
   viewBox="0 0 18 18"
   fill="none"
   version="1.1"
   id="svg1"
   sodipodi:docname="thapo_site_logo.svg"
   inkscape:version="1.4.2 (ebf0e940d0, 2025-05-08)"
   xmlns:inkscape="http://www.inkscape.org/namespaces/inkscape"
   xmlns:sodipodi="http://sodipodi.sourceforge.net/DTD/sodipodi-0.dtd"
   xmlns="http://www.w3.org/2000/svg"
   xmlns:svg="http://www.w3.org/2000/svg">
  <defs
     id="defs1">
    <rect
       x="157.1965"
       y="330.41302"
       width="383.47934"
       height="227.2841"
       id="rect4" />
    <rect
       x="159.19901"
       y="351.4393"
       width="371.46432"
       height="218.27284"
       id="rect3" />
    <rect
       x="178.22278"
       y="363.45432"
       width="93.116394"
       height="101.12641"
       id="rect2" />
    <rect
       x="180.22528"
       y="354.44305"
       width="90.185242"
       height="93.649033"
       id="rect1" />
    <rect
       x="180.22528"
       y="354.44305"
       width="128.97185"
       height="90.167938"
       id="rect1-9" />
  </defs>
  <sodipodi:namedview
     id="namedview1"
     pagecolor="#ffffff"
     bordercolor="#000000"
     borderopacity="0.25"
     inkscape:showpageshadow="2"
     inkscape:pageopacity="0.0"
     inkscape:pagecheckerboard="0"
     inkscape:deskcolor="#d1d1d1"
     showgrid="false"
     inkscape:zoom="0.7062229"
     inkscape:cx="431.16699"
     inkscape:cy="507.6301"
     inkscape:window-width="1920"
     inkscape:window-height="1008"
     inkscape:window-x="0"
     inkscape:window-y="0"
     inkscape:window-maximized="1"
     inkscape:current-layer="svg1" />
  <path
     fill-rule="evenodd"
     clip-rule="evenodd"
     d="m 6.8221951,15.430655 c 0.17206,0.3225 0.34436,0.6131 0.50906,0.8706 -1.74985,-0.3935 -3.26824,-1.3986 -4.31892,-2.779 0.69343,-0.3905 1.58157,-0.7953 2.64928,-1.0915 0.30346,1.1902 0.73158,2.1955 1.16058,2.9999 z m 1.32356,-0.7059 c -0.3727,-0.6987 -0.7462,-1.5713 -1.0153,-2.6052 0.5793,-0.086 1.1977,-0.1356 1.8535997,-0.1356 0.6558001,0 1.2742002,0.0496 1.8534002,0.1355 -0.2691,1.034 -0.6426,1.9066 -1.0153001,2.6053 -0.2988,0.5603 -0.5965001,1.0076 -0.8382001,1.3349 -0.2417,-0.3273 -0.5393997,-0.7746 -0.8381997,-1.3349 z m -1.4118,-5.7408002 c 0,0.5841001 0.0393,1.1385002 0.1086,1.6619002 0.6683,-0.1025 1.3828,-0.1619 2.1414997,-0.1619 0.7586001,0 1.4731002,0.0593 2.1413002,0.1619 0.0693,-0.5235 0.1086,-1.0778001 0.1086,-1.6619002 0,-0.5841 -0.0393,-1.1383997 -0.1086,-1.6618997 -0.6682,0.1025 -1.3827001,0.1619 -2.1413002,0.1619 -0.7586997,0 -1.4731997,-0.0594 -2.1414997,-0.1619 -0.0693,0.5234 -0.1086,1.0777997 -0.1086,1.6618997 z m -1.36312,-1.9711997 c -0.08711,0.619 -0.13688,1.2766 -0.13688,1.9711997 0,0.6946001 0.04977,1.3522002 0.13688,1.9712002 -1.2735,0.3419 -2.32806,0.824 -3.14364,1.2879 -0.47626,-0.9855 -0.74324,-2.0911 -0.74324,-3.2591002 0,-1.1679997 0.26698,-2.2735597 0.74323,-3.2591197 0.81549,0.46384 1.87007,0.94598 3.14365,1.28792 z m 1.75962,-1.16435 c 0.5793,0.08597 1.1977,0.13555 1.8535997,0.13555 0.6558001,0 1.2742002,-0.04957 1.8534002,-0.13553 -0.2691,-1.03392 -0.6426,-1.90654 -1.0153001,-2.60527 -0.2988,-0.56026 -0.5965001,-1.00764 -0.8382001,-1.33488 -0.2417,0.32724 -0.5393997,0.77462 -0.8381997,1.33486 -0.3727,0.69873 -0.7462,1.57135 -1.0153,2.60527 z m 5.4665999,1.16445 c 0.0871,0.619 0.1369,1.2766 0.1369,1.9710997 0,0.6946001 -0.0498,1.3521002 -0.1369,1.9711002 1.2735,0.342 2.3281,0.8241 3.1437,1.288 0.4762,-0.9856 0.7432,-2.0912 0.7432,-3.2591002 0,-1.1678997 -0.267,-2.2735297 -0.7432,-3.2590697 -0.8155,0.46384 -1.8701,0.94597 -3.1437,1.28797 z m 2.3585,-2.56712 c -0.6935,0.39053 -1.5816,0.79527 -2.6492,1.0915 -0.3035,-1.19024 -0.7316,-2.19559 -1.1606,-2.99996 -0.1721,-0.32255 -0.3444,-0.61307 -0.5091,-0.87062 1.7499,0.39353 3.2683,1.39866 4.3189,2.77908 z m -9.2939499,1.09147 c -1.06764,-0.29624 -1.95575,-0.70098 -2.64926,-1.09152 1.05067,-1.38039 2.56906,-2.3855 4.31881,-2.77903 -0.1646,0.25755 -0.3369,0.54806 -0.50897,0.8706 -0.42899,0.80437 -0.85711,1.80971 -1.16058,2.99995 z m 6.6447499,6.8934499 c -0.3035,1.1903 -0.7316,2.1956 -1.1606,3 -0.1721,0.3225 -0.3444,0.6131 -0.5091,0.8706 1.7499,-0.3935 3.2683,-1.3987 4.319,-2.7791 -0.6935,-0.3905 -1.5816,-0.7952 -2.6493,-1.0915 z m -3.3224002,5.5533 c 4.9706002,0 9.0000002,-4.0294 9.0000002,-9.0000002 0,-4.9705597 -4.0294,-8.99999973 -9.0000002,-8.99999973 -4.9705597,0 -8.9999997,4.02944003 -8.9999997,8.99999973 0,4.9706002 4.02944,9.0000002 8.9999997,9.0000002 z"
     fill="#080341"
     id="path1"
     style="fill:#5e35b1;fill-opacity:1" />
  <text
     xml:space="preserve"
     transform="matrix(0.03330053,0,0,0.03451503,-4.0798223,-4.6713853)"
     id="text1"
     style="font-style:normal;font-variant:normal;font-weight:normal;font-stretch:normal;font-size:75.511px;font-family:'TeX Gyre Chorus';-inkscape-font-specification:'TeX Gyre Chorus, Normal';font-variant-ligatures:normal;font-variant-caps:normal;font-variant-numeric:normal;font-variant-east-asian:normal;text-align:start;writing-mode:lr-tb;direction:ltr;white-space:pre;shape-inside:url(#rect1);display:inline;fill:#5e35b1;fill-opacity:1"><tspan
       x="180.22461"
       y="420.66651"
       id="tspan1">Th</tspan></text>
  <text
     xml:space="preserve"
     transform="scale(0.03)"
     id="text2"
     style="font-style:normal;font-variant:normal;font-weight:normal;font-stretch:normal;font-size:96px;font-family:'TeX Gyre Chorus';-inkscape-font-specification:'TeX Gyre Chorus, Normal';font-variant-ligatures:normal;font-variant-caps:normal;font-variant-numeric:normal;font-variant-east-asian:normal;text-align:start;writing-mode:lr-tb;direction:ltr;white-space:pre;shape-inside:url(#rect2);display:inline;fill:#5e35b1;fill-opacity:1" />
  <text
     xml:space="preserve"
     transform="scale(0.03)"
     id="text3"
     style="font-style:normal;font-variant:normal;font-weight:normal;font-stretch:normal;font-size:96px;font-family:'TeX Gyre Chorus';-inkscape-font-specification:'TeX Gyre Chorus, Normal';font-variant-ligatures:normal;font-variant-caps:normal;font-variant-numeric:normal;font-variant-east-asian:normal;text-align:start;writing-mode:lr-tb;direction:ltr;white-space:pre;shape-inside:url(#rect3);display:inline;fill:#5e35b1;fill-opacity:1" />
  <text
     xml:space="preserve"
     transform="scale(0.03)"
     id="text4"
     style="font-style:normal;font-variant:normal;font-weight:normal;font-stretch:normal;font-size:96px;font-family:'TeX Gyre Chorus';-inkscape-font-specification:'TeX Gyre Chorus, Normal';font-variant-ligatures:normal;font-variant-caps:normal;font-variant-numeric:normal;font-variant-east-asian:normal;text-align:start;writing-mode:lr-tb;direction:ltr;white-space:pre;shape-inside:url(#rect4);display:inline;fill:#5e35b1;fill-opacity:1" />
  <text
     xml:space="preserve"
     transform="matrix(0.03330053,0,0,0.03451503,6.6419608,-5.0883872)"
     id="text1-7"
     style="font-style:normal;font-variant:normal;font-weight:normal;font-stretch:normal;font-size:75.511px;font-family:'TeX Gyre Chorus';-inkscape-font-specification:'TeX Gyre Chorus, Normal';font-variant-ligatures:normal;font-variant-caps:normal;font-variant-numeric:normal;font-variant-east-asian:normal;text-align:start;writing-mode:lr-tb;direction:ltr;white-space:pre;shape-inside:url(#rect1-9);display:inline;fill:#5e35b1;fill-opacity:1"><tspan
       x="180.22461"
       y="420.66651"
       id="tspan2">Apo</tspan></text>
</svg>
